<?xml version="1.0" encoding="UTF-8" standalone="no"?>
<svg width="26px" height="24px" viewBox="0 0 26 24" version="1.1" xmlns="http://www.w3.org/2000/svg" xmlns:xlink="http://www.w3.org/1999/xlink" xmlns:sketch="http://www.bohemiancoding.com/sketch/ns">
    <!-- Generator: Sketch 3.3.3 (12081) - http://www.bohemiancoding.com/sketch -->
    <title>icon_truefactor</title>
    <desc>Created with Sketch.</desc>
    <defs></defs>
    <g id="Page-1" stroke="none" stroke-width="1" fill="none" fill-rule="evenodd" sketch:type="MSPage">
        <g id="truefactor_app-auth" sketch:type="MSArtboardGroup" transform="translate(-46.000000, -20.000000)">
            <g id="Header-/-Back" sketch:type="MSLayerGroup">
                <g id="Icon-/-Truefactor" transform="translate(45.000000, 15.000000)" sketch:type="MSShapeGroup">
                    <g id="icon_truefactor" transform="translate(0.000000, 4.692308)">
                        <path d="M27.0000008,0.307692308 L27.0000008,2.30769231 L25.0000008,4.30769231 L25.0000008,20.3175934 L14.9999999,20.3175934 C14.094821,21.64894 12.7133687,22.9724075 11.4554455,23.8324448 L11.2178218,24.0700685 C10.6483994,24.4356718 9.33175595,24.3989154 8.6039604,23.8324448 L6.22772277,21.9314547 C5.44651332,21.3262722 4.2506871,20.140527 3.61386139,19.3175933 L1.47524752,16.7037319 C0.908834582,15.9878889 0.871858981,14.9155155 1.23762376,14.3274943 L1.47524752,14.0898705 C2.33842104,12.8549957 4.42679849,10.9842974 5.75247525,10.0502666 L5.99009901,9.8126428 C6.77269862,9.27683648 7.84680112,9.30678905 8.6039604,9.8126428 L10.4999999,11.8076923 L22.0000008,0.307692308 L27.0000008,0.307692308 Z" id="Rectangle-2" fill="#DD361A"></path>
                        <path d="M9.40243902,14.673546 L9.40243902,19.3076923 L5,19.3076923 L5,0.307692308 L24,0.307692308 L9.40243902,14.673546 Z" id="Rectangle-2" fill="#4895D3"></path>
                        <path d="M5.38359815,9.76894086 C4.09246302,10.7889135 2.27290538,12.628224 1.46032693,13.9226497 C0.829803981,14.6528309 0.863543188,15.7046392 1.46032693,16.4610273 L3.53735287,18.9994049 C4.13112177,19.7701483 5.30107651,20.9304487 6.07594014,21.5377826 L8.38374674,23.3838754 C9.10409718,23.935314 10.1623298,23.9688404 10.922334,23.614637 C12.1908829,22.5286819 14.0355119,20.7113604 15.0763859,19.4609281 L15.3071665,18.9994049 C15.7195858,18.4108116 15.6909523,17.3661028 15.0763859,16.6917889 L13.4615383,14.8076923 L15,13.3076923 L15,10.3076923 L18,10.3076923 L18,7.30769231 L21,7.30769231 L21,4.30769229 L24,4.30769229 L26,2.30769229 L27,2.30769229 L27,0.307692289 L22.230587,0.307692289 L10.5,11.846154 L8.15296608,9.53817926 C7.45039826,9.13542796 6.39709877,9.10856354 5.84515948,9.53817926 L5.38359815,9.76894086 Z M6.46157658,16.7692308 C5.84742669,17.3310551 5.84742669,18.2843295 6.46157658,18.8461538 C7.02344734,19.460253 7.97680043,19.460253 8.53867119,18.8461538 C9.15282108,18.2843295 9.15282108,17.3310551 8.53867119,16.7692308 C7.97680043,16.1551316 7.02344734,16.1551316 6.46157658,16.7692308 Z" id="Rectangle-1" fill="#FFFFFF"></path>
                    </g>
                </g>
            </g>
        </g>
    </g>
</svg>