<?xml version="1.0" encoding="UTF-8" standalone="no"?>
<svg width="20px" height="14px" viewBox="0 0 20 14" version="1.1" xmlns="http://www.w3.org/2000/svg" xmlns:xlink="http://www.w3.org/1999/xlink" xmlns:sketch="http://www.bohemiancoding.com/sketch/ns">
    <!-- Generator: Sketch 3.3.3 (12081) - http://www.bohemiancoding.com/sketch -->
    <title>icon_drawer</title>
    <desc>Created with Sketch.</desc>
    <defs></defs>
    <g id="Page-1" stroke="none" stroke-width="1" fill="none" fill-rule="evenodd" sketch:type="MSPage">
        <g id="truefactor_apps-list" sketch:type="MSArtboardGroup" transform="translate(-16.000000, -24.000000)" fill="#4895D3">
            <g id="Header" sketch:type="MSLayerGroup">
                <g id="Control-/-Add-app" transform="translate(16.000000, 16.000000)" sketch:type="MSShapeGroup">
                    <path d="M20,10 L0,10 C0.1875,10 0,9.275 0,9 C0,8.725 0.1875,8 0,8 L20,8 C19.8125,8 20,8.725 20,9 C20,9.275 19.8125,10 20,10 Z M20,16 L0,16 C0.1875,16 0,15.275 0,15 C0,14.725 0.1875,14 0,14 L20,14 C19.8125,14 20,14.725 20,15 C20,15.275 19.8125,16 20,16 Z M20,22 L0,22 C0.1875,22 0,21.275 0,21 C0,20.725 0.1875,20 0,20 L20,20 C19.8125,20 20,20.725 20,21 C20,21.275 19.8125,22 20,22 Z" id="icon_drawer"></path>
                </g>
            </g>
        </g>
    </g>
</svg>