<?xml version="1.0" encoding="UTF-8" standalone="no"?>
<svg width="24px" height="24px" viewBox="0 0 24 24" version="1.1" xmlns="http://www.w3.org/2000/svg" xmlns:xlink="http://www.w3.org/1999/xlink" xmlns:sketch="http://www.bohemiancoding.com/sketch/ns">
    <!-- Generator: Sketch 3.3.3 (12081) - http://www.bohemiancoding.com/sketch -->
    <title>Control / Add app</title>
    <desc>Created with Sketch.</desc>
    <defs></defs>
    <g id="Page-1" stroke="none" stroke-width="1" fill="none" fill-rule="evenodd" sketch:type="MSPage">
        <g id="truefactor_apps-list" sketch:type="MSArtboardGroup" transform="translate(-279.000000, -19.000000)">
            <g id="Header" sketch:type="MSLayerGroup">
                <g id="Control-/-Add-app" transform="translate(276.000000, 16.000000)" sketch:type="MSShapeGroup">
                    <rect id="Rectangle-26" fill-opacity="0" fill="#D8D8D8" x="0" y="0" width="30" height="30"></rect>
                    <path d="M20.5,16 L16,16 L16,20.5 C16,20.775 15.275,21 15,21 C14.725,21 14,20.775 14,20.5 L14,16 L9.5,16 C9.225,16 9,15.275 9,15 C9,14.725 9.225,14 9.5,14 L14,14 L14,9.5 C14,9.225 14.725,9 15,9 C15.275,9 16,9.225 16,9.5 L16,14 L20.5,14 C20.775,14 21,14.725 21,15 C21,15.275 20.775,16 20.5,16 Z M27,15 C27,21.6315789 21.6315789,27 15,27 C8.36842105,27 3,21.6315789 3,15 C3,8.36842105 8.36842105,3 15,3 C21.6315789,3 27,8.36842105 27,15 L27,15 Z" id="icon_plus" fill="#4895D3"></path>
                </g>
            </g>
        </g>
    </g>
</svg>