<?xml version="1.0" encoding="UTF-8" standalone="no"?>
<svg width="135px" height="24px" viewBox="0 0 135 24" version="1.1" xmlns="http://www.w3.org/2000/svg" xmlns:xlink="http://www.w3.org/1999/xlink" xmlns:sketch="http://www.bohemiancoding.com/sketch/ns">
    <!-- Generator: Sketch 3.3.3 (12081) - http://www.bohemiancoding.com/sketch -->
    <title>logo_truefactor</title>
    <desc>Created with Sketch.</desc>
    <defs></defs>
    <g id="Page-1" stroke="none" stroke-width="1" fill="none" fill-rule="evenodd" sketch:type="MSPage">
        <g id="truefactor_apps-list" sketch:type="MSArtboardGroup" transform="translate(-52.000000, -21.000000)">
            <g id="Header" sketch:type="MSLayerGroup" transform="translate(1.000000, 1.000000)">
                <g id="Logo-/-Truefactor" transform="translate(50.000000, 15.000000)" sketch:type="MSShapeGroup">
                    <g id="logo_truefactor" transform="translate(0.000000, 4.692308)">
                        <path d="M27.0000008,0.307692308 L27.0000008,2.30769231 L25.0000008,4.30769231 L25.0000008,20.3175934 L14.9999999,20.3175934 C14.094821,21.64894 12.7133687,22.9724075 11.4554455,23.8324448 L11.2178218,24.0700685 C10.6483994,24.4356718 9.33175595,24.3989154 8.6039604,23.8324448 L6.22772277,21.9314547 C5.44651332,21.3262722 4.2506871,20.140527 3.61386139,19.3175933 L1.47524752,16.7037319 C0.908834582,15.9878889 0.871858981,14.9155155 1.23762376,14.3274943 L1.47524752,14.0898705 C2.33842104,12.8549957 4.42679849,10.9842974 5.75247525,10.0502666 L5.99009901,9.8126428 C6.77269862,9.27683648 7.84680112,9.30678905 8.6039604,9.8126428 L10.4999999,11.8076923 L22.0000008,0.307692308 L27.0000008,0.307692308 Z" id="Rectangle-2" fill="#DD361A"></path>
                        <path d="M9.40243902,14.673546 L9.40243902,19.3076923 L5,19.3076923 L5,0.307692308 L24,0.307692308 L9.40243902,14.673546 Z" id="Rectangle-2" fill="#4895D3"></path>
                        <path d="M5.38359815,9.76894086 C4.09246302,10.7889135 2.27290538,12.628224 1.46032693,13.9226497 C0.829803981,14.6528309 0.863543188,15.7046392 1.46032693,16.4610273 L3.53735287,18.9994049 C4.13112177,19.7701483 5.30107651,20.9304487 6.07594014,21.5377826 L8.38374674,23.3838754 C9.10409718,23.935314 10.1623298,23.9688404 10.922334,23.614637 C12.1908829,22.5286819 14.0355119,20.7113604 15.0763859,19.4609281 L15.3071665,18.9994049 C15.7195858,18.4108116 15.6909523,17.3661028 15.0763859,16.6917889 L13.4615383,14.8076923 L15,13.3076923 L15,10.3076923 L18,10.3076923 L18,7.30769231 L21,7.30769231 L21,4.30769229 L24,4.30769229 L26,2.30769229 L27,2.30769229 L27,0.307692289 L22.230587,0.307692289 L10.5,11.846154 L8.15296608,9.53817926 C7.45039826,9.13542796 6.39709877,9.10856354 5.84515948,9.53817926 L5.38359815,9.76894086 Z M6.46157658,16.7692308 C5.84742669,17.3310551 5.84742669,18.2843295 6.46157658,18.8461538 C7.02344734,19.460253 7.97680043,19.460253 8.53867119,18.8461538 C9.15282108,18.2843295 9.15282108,17.3310551 8.53867119,16.7692308 C7.97680043,16.1551316 7.02344734,16.1551316 6.46157658,16.7692308 Z" id="Rectangle-1" fill="#FFFFFF"></path>
                        <path d="M49.3222066,2.57669029 L49.3222066,4.95463246 L44.6244328,4.95463246 L44.6244328,18.1355336 L41.7193727,18.1355336 L41.7193727,4.95463246 L37,4.95463246 L37,2.57669029 L49.3222066,2.57669029 Z M48.9395548,18.1355336 L48.9395548,7.0958564 L50.5054793,7.0958564 C50.7790675,7.0958564 50.9698564,7.14606885 51.0778518,7.24649527 C51.1858471,7.34692168 51.2578429,7.51907867 51.2938414,7.76297139 L51.4558336,9.09720139 C51.8518165,8.41573642 52.3161895,7.87774584 52.8489665,7.48321349 C53.3817435,7.08868114 53.9793087,6.89141793 54.6416801,6.89141793 C55.1888565,6.89141793 55.6424301,7.01694907 56.0024146,7.26801511 L55.6568313,9.25860018 C55.6352322,9.38771985 55.5884349,9.47917825 55.516438,9.53297812 C55.4444411,9.58677798 55.3472468,9.61367751 55.2248521,9.61367751 C55.1168567,9.61367751 54.9692653,9.58857129 54.7820734,9.53835808 C54.5948815,9.48814487 54.3464959,9.46303864 54.0369093,9.46303864 C53.4825332,9.46303864 53.0073608,9.61546931 52.6113779,9.92033521 C52.215395,10.2252011 51.8806145,10.6717333 51.6070263,11.2599452 L51.6070263,18.1355336 L48.9395548,18.1355336 Z M59.8531589,7.0958564 L59.8531589,14.1113238 C59.8531589,14.7856154 60.0097498,15.3074663 60.3229363,15.676892 C60.6361228,16.0463178 61.1058954,16.2310279 61.7322684,16.2310279 C62.1930485,16.2310279 62.6250234,16.1288097 63.028206,15.9243702 C63.4313886,15.7199307 63.8129664,15.4383823 64.1729509,15.0797165 L64.1729509,7.0958564 L66.8404224,7.0958564 L66.8404224,18.1355336 L65.2097009,18.1355336 C64.8641159,18.1355336 64.6373291,17.9741364 64.5293337,17.6513372 L64.3457426,16.7690238 C64.1153525,16.9985699 63.8777663,17.2083863 63.6329769,17.3984791 C63.3881874,17.588572 63.1272026,17.7499692 62.8500146,17.8826755 C62.5728265,18.0153818 62.2740439,18.1193933 61.9536578,18.1947132 C61.6332716,18.270033 61.2894916,18.3076923 60.9223074,18.3076923 C60.3175335,18.3076923 59.7829646,18.2054741 59.3185847,18.0010346 C58.8542047,17.7965951 58.4636274,17.5078735 58.1468411,17.1348611 C57.8300548,16.7618487 57.5906687,16.3189031 57.4286757,15.8060111 C57.2666827,15.293119 57.1856874,14.7282289 57.1856874,14.1113238 L57.1856874,7.0958564 L59.8531589,7.0958564 Z M73.9202112,6.92369769 C74.6185811,6.92369769 75.2611437,7.03488241 75.8479184,7.25725519 C76.434693,7.47962796 76.9404636,7.80421562 77.3652453,8.23102788 C77.790027,8.65784015 78.1212077,9.18148432 78.3587974,9.8019761 C78.5963872,10.4224679 78.7151803,11.1308222 78.7151803,11.9270602 C78.7151803,12.127913 78.7061808,12.2946901 78.6881816,12.4273964 C78.6701824,12.5601027 78.6377842,12.6641143 78.5909863,12.7394341 C78.5441883,12.8147539 78.4811919,12.8685529 78.4019954,12.9008329 C78.3227988,12.9331128 78.2220046,12.9492525 78.0996099,12.9492525 L71.2527397,12.9492525 C71.3319363,14.0826363 71.6379185,14.9147284 72.1706955,15.4455538 C72.7034725,15.9763791 73.4090314,16.2417878 74.2873935,16.2417878 C74.7193749,16.2417878 75.0919532,16.1915753 75.4051397,16.0911489 C75.7183262,15.9907225 75.9919103,15.8795378 76.2259002,15.7575914 C76.4598901,15.6356451 76.6650781,15.5244604 76.8414705,15.4240339 C77.0178629,15.3236075 77.188853,15.2733951 77.3544458,15.2733951 C77.4624412,15.2733951 77.5560357,15.2949147 77.6352323,15.3379546 C77.7144289,15.3809945 77.7828249,15.4419667 77.8404224,15.5208732 L78.617985,16.4892659 C78.3227977,16.8335851 77.991617,17.1223067 77.6244328,17.3554394 C77.2572487,17.5885722 76.873871,17.7750756 76.4742882,17.9149553 C76.0747054,18.0548349 75.6679291,18.1534665 75.253947,18.210853 C74.8399648,18.2682396 74.4385882,18.2969324 74.049805,18.2969324 C73.2794382,18.2969324 72.5630799,18.1696079 71.9007085,17.9149553 C71.2383371,17.6603026 70.6623705,17.2837091 70.1727917,16.7851637 C69.6832128,16.2866183 69.2980352,15.6697224 69.0172473,14.9344576 C68.7364594,14.1991928 68.5960676,13.3473744 68.5960676,12.3789768 C68.5960676,11.6257787 68.7184605,10.9174244 68.9632499,10.2538927 C69.2080394,9.59036104 69.559019,9.01291781 70.0161992,8.5215457 C70.4733795,8.0301736 71.031347,7.64102708 71.6901186,7.35409446 C72.3488902,7.06716184 73.0922469,6.92369769 73.9202112,6.92369769 L73.9202112,6.92369769 Z M73.9742086,8.8282034 C73.1966422,8.8282034 72.5882775,9.04698624 72.1490965,9.48455848 C71.7099155,9.92213072 71.4291318,10.5426132 71.3067371,11.3460245 L76.3176957,11.3460245 C76.3176957,11.0017054 76.2708985,10.6771177 76.1773025,10.3722518 C76.0837065,10.0673859 75.9397149,9.80018393 75.7453233,9.57063784 C75.5509317,9.34109174 75.3061459,9.15996825 75.0109587,9.02726191 C74.7157714,8.89455558 74.3701915,8.8282034 73.9742086,8.8282034 L73.9742086,8.8282034 Z M81.0107995,18.1355336 L81.0107995,9.09720139 L80.0496458,8.94656252 C79.8408548,8.91069594 79.6734645,8.83896386 79.54747,8.73136413 C79.4214754,8.6237644 79.3584791,8.47312704 79.3584791,8.27944752 L79.3584791,7.19269567 L81.0107995,7.19269567 L81.0107995,6.3749418 C81.0107995,5.74369005 81.1061939,5.17700663 81.2969857,4.67487455 C81.4877775,4.17274248 81.7613616,3.74593661 82.1177462,3.39444416 C82.4741308,3.0429517 82.9079056,2.77395641 83.4190835,2.58745021 C83.9302614,2.40094401 84.5062279,2.30769231 85.1470003,2.30769231 C85.6581782,2.30769231 86.1333506,2.37583778 86.5725316,2.51213077 L86.5185342,3.84636077 C86.5041349,4.05438691 86.4069405,4.18350465 86.2269483,4.23371786 C86.046956,4.28393107 85.8381682,4.3090373 85.6005784,4.3090373 C85.2837921,4.3090373 85.0012085,4.34311003 84.7528193,4.41125653 C84.50443,4.47940303 84.2938422,4.59776096 84.1210497,4.76633387 C83.9482572,4.93490678 83.8168648,5.15727622 83.7268687,5.43344886 C83.6368726,5.70962151 83.5918752,6.05214218 83.5918752,6.46102116 L83.5918752,7.19269567 L86.4753363,7.19269567 L86.4753363,9.08644147 L83.678271,9.08644147 L83.678271,18.1355336 L81.0107995,18.1355336 Z M96.4385862,18.1355336 L95.239844,18.1355336 C94.9878548,18.1355336 94.7898664,18.0978743 94.6458726,18.0225544 C94.5018788,17.9472346 94.3938851,17.794804 94.3218882,17.5652579 L94.0842996,16.7797838 C93.8035117,17.0308498 93.5281278,17.2514259 93.2581394,17.4415188 C92.9881511,17.6316117 92.7091673,17.7912155 92.4211797,17.9203352 C92.1331921,18.0494549 91.8272099,18.1462932 91.5032239,18.210853 C91.1792379,18.2754129 90.8192588,18.3076923 90.4232759,18.3076923 C89.9552961,18.3076923 89.5233213,18.2449267 89.1273383,18.1193937 C88.7313554,17.9938607 88.3911752,17.805564 88.1067875,17.554498 C87.8223998,17.3034319 87.6010126,16.9913974 87.4426195,16.618385 C87.2842263,16.2453726 87.2050309,15.8113935 87.2050309,15.3164347 C87.2050309,14.9003824 87.3148245,14.4897163 87.5344151,14.084424 C87.7540056,13.6791317 88.1193843,13.3132981 88.6305623,12.9869122 C89.1417402,12.6605264 89.8221006,12.3897378 90.671664,12.1745383 C91.5212273,11.9593388 92.575966,11.8373943 93.8359116,11.8087011 L93.8359116,11.1631059 C93.8359116,10.4242544 93.6793207,9.87729731 93.3661342,9.5222182 C93.0529477,9.16713909 92.5975742,8.98960219 92,8.98960219 C91.5680186,8.98960219 91.2080396,9.03981465 90.920052,9.14024106 C90.6320644,9.24066748 90.381879,9.3536455 90.1694882,9.47917852 C89.9570973,9.60471154 89.7609087,9.71768956 89.5809165,9.81811598 C89.4009243,9.9185424 89.2029358,9.96875485 88.9869451,9.96875485 C88.8069529,9.96875485 88.6521619,9.922129 88.5225675,9.8288759 C88.3929731,9.7356228 88.2885791,9.62085147 88.2093826,9.48455848 L87.723406,8.63452486 C88.997751,7.47244776 90.5348616,6.89141793 92.3347839,6.89141793 C92.9827559,6.89141793 93.5605223,6.99722274 94.0681004,7.20883555 C94.5756785,7.42044835 95.0058535,7.71454987 95.3586383,8.09114893 C95.711423,8.46774799 95.9796074,8.91786678 96.1631995,9.4415188 C96.3467916,9.96517083 96.4385862,10.5390275 96.4385862,11.1631059 L96.4385862,18.1355336 Z M91.2548359,16.478506 C91.5284241,16.478506 91.7804094,16.4533998 92.0107995,16.4031866 C92.2411895,16.3529734 92.4589769,16.2776547 92.664168,16.1772283 C92.8693592,16.0768019 93.0673476,15.953064 93.2581394,15.8060111 C93.4489312,15.6589581 93.64152,15.4850078 93.8359116,15.284155 L93.8359116,13.4226889 C93.0583451,13.4585555 92.4085829,13.5249077 91.8866055,13.6217475 C91.364628,13.7185872 90.9452524,13.842325 90.6284661,13.9929647 C90.3116797,14.1436043 90.0866928,14.3193479 89.9534986,14.5202007 C89.8203043,14.7210535 89.7537082,14.9398364 89.7537082,15.1765558 C89.7537082,15.6428213 89.8923001,15.9763755 90.1694882,16.1772283 C90.4466762,16.3780811 90.8084552,16.478506 91.2548359,16.478506 L91.2548359,16.478506 Z M106.499031,9.43075888 C106.419835,9.5311853 106.342439,9.61009059 106.266843,9.66747711 C106.191246,9.72486363 106.081452,9.75355646 105.937459,9.75355646 C105.800664,9.75355646 105.667472,9.71231052 105.537878,9.62981739 C105.408283,9.54732426 105.253492,9.45407256 105.0735,9.35005949 C104.893508,9.24604642 104.67932,9.15279472 104.430931,9.07030159 C104.182542,8.98780846 103.87476,8.94656252 103.507576,8.94656252 C103.039596,8.94656252 102.62922,9.03084771 102.276435,9.19942062 C101.92365,9.36799353 101.630267,9.61008929 101.396277,9.92571517 C101.162287,10.2413411 100.987697,10.6233144 100.872502,11.0716466 C100.757307,11.5199788 100.699711,12.0274832 100.699711,12.5941752 C100.699711,13.182387 100.762707,13.7060312 100.888702,14.1651234 C101.014696,14.6242156 101.196486,15.0097755 101.434075,15.3218147 C101.671665,15.6338539 101.959648,15.8705698 102.298034,16.0319694 C102.636419,16.193369 103.017997,16.2740676 103.442779,16.2740676 C103.86756,16.2740676 104.21134,16.2220618 104.474129,16.1180487 C104.736918,16.0140357 104.958305,15.8992643 105.138297,15.7737313 C105.318289,15.6481983 105.47488,15.533427 105.608074,15.4294139 C105.741269,15.3254008 105.89066,15.2733951 106.056253,15.2733951 C106.272243,15.2733951 106.434234,15.355887 106.542229,15.5208732 L107.308992,16.4892659 C107.013805,16.8335851 106.693424,17.1223067 106.347839,17.3554394 C106.002254,17.5885722 105.644075,17.7750756 105.273291,17.9149553 C104.902507,18.0548349 104.519129,18.1534665 104.123146,18.210853 C103.727163,18.2682396 103.334786,18.2969324 102.946003,18.2969324 C102.262032,18.2969324 101.61767,18.1696079 101.012896,17.9149553 C100.408122,17.6603026 99.8807525,17.2890891 99.4307719,16.8013036 C98.9807913,16.3135182 98.624412,15.7163486 98.3616234,15.009777 C98.0988347,14.3032055 97.9674424,13.4980129 97.9674424,12.5941752 C97.9674424,11.7835905 98.0844356,11.032197 98.3184255,10.3399721 C98.5524154,9.64774713 98.8961954,9.04878428 99.3497758,8.54306554 C99.8033562,8.03734681 100.364924,7.64102708 101.034495,7.35409446 C101.704066,7.06716184 102.474421,6.92369769 103.345583,6.92369769 C104.173548,6.92369769 104.898905,7.05640203 105.521679,7.3218147 C106.144452,7.58722737 106.704219,7.96740739 107.200998,8.46236615 L106.499031,9.43075888 Z M112.304482,18.3076923 C111.346923,18.3076923 110.608966,18.0369037 110.090588,17.4953184 C109.572211,16.9537331 109.313026,16.2059262 109.313026,15.2518752 L109.313026,9.08644147 L108.18988,9.08644147 C108.045886,9.08644147 107.921693,9.03981562 107.817298,8.94656252 C107.712902,8.85330942 107.660705,8.71343186 107.660705,8.52692566 L107.660705,7.47245357 L109.442619,7.18193575 L110.004192,4.16915835 C110.032991,4.02569204 110.099587,3.91450732 110.203983,3.83560085 C110.308378,3.75669438 110.439771,3.71724174 110.598164,3.71724174 L111.980497,3.71724174 L111.980497,7.19269567 L114.896357,7.19269567 L114.896357,9.08644147 L111.980497,9.08644147 L111.980497,15.0689566 C111.980497,15.4132757 112.066892,15.682271 112.239685,15.8759505 C112.412477,16.0696301 112.642864,16.1664684 112.930851,16.1664684 C113.096444,16.1664684 113.235036,16.146742 113.346631,16.1072888 C113.458227,16.0678356 113.555421,16.0265896 113.638217,15.9835497 C113.721014,15.9405098 113.79481,15.8992639 113.859607,15.8598107 C113.924404,15.8203574 113.9892,15.8006311 114.053997,15.8006311 C114.133194,15.8006311 114.19799,15.8203574 114.248388,15.8598107 C114.298786,15.8992639 114.352783,15.9584429 114.41038,16.0373493 L115.209542,17.3285397 C114.820759,17.6513388 114.374384,17.8952279 113.870406,18.0602142 C113.366428,18.2252004 112.844458,18.3076923 112.304482,18.3076923 L112.304482,18.3076923 Z M121.403773,6.92369769 C122.231737,6.92369769 122.982294,7.05640203 123.655465,7.3218147 C124.328636,7.58722737 124.902802,7.96382078 125.377982,8.45160623 C125.853161,8.93939168 126.22034,9.53476792 126.479529,10.2377528 C126.738718,10.9407377 126.86831,11.726204 126.86831,12.5941752 C126.86831,13.4693196 126.738718,14.2583725 126.479529,14.9613574 C126.22034,15.6643423 125.853161,16.2633052 125.377982,16.7582639 C124.902802,17.2532227 124.328636,17.6334027 123.655465,17.8988154 C122.982294,18.164228 122.231737,18.2969324 121.403773,18.2969324 C120.575809,18.2969324 119.823453,18.164228 119.146682,17.8988154 C118.469911,17.6334027 117.892145,17.2532227 117.413365,16.7582639 C116.934586,16.2633052 116.563808,15.6643423 116.301019,14.9613574 C116.03823,14.2583725 115.906838,13.4693196 115.906838,12.5941752 C115.906838,11.726204 116.03823,10.9407377 116.301019,10.2377528 C116.563808,9.53476792 116.934586,8.93939168 117.413365,8.45160623 C117.892145,7.96382078 118.469911,7.58722737 119.146682,7.3218147 C119.823453,7.05640203 120.575809,6.92369769 121.403773,6.92369769 L121.403773,6.92369769 Z M121.403773,16.2525477 C122.325333,16.2525477 123.007494,15.9440998 123.450275,15.3271947 C123.893056,14.7102895 124.114443,13.8064654 124.114443,12.615695 C124.114443,11.4249246 123.893056,10.5175139 123.450275,9.89343541 C123.007494,9.26935697 122.325333,8.95732244 121.403773,8.95732244 C120.467814,8.95732244 119.776654,9.27115028 119.330273,9.89881537 C118.883892,10.5264805 118.660705,11.432098 118.660705,12.615695 C118.660705,13.799292 118.883892,14.7013229 119.330273,15.3218147 C119.776654,15.9423065 120.467814,16.2525477 121.403773,16.2525477 L121.403773,16.2525477 Z M128.602356,18.1355336 L128.602356,7.0958564 L130.168281,7.0958564 C130.441869,7.0958564 130.632658,7.14606885 130.740653,7.24649527 C130.848649,7.34692168 130.920644,7.51907867 130.956643,7.76297139 L131.118635,9.09720139 C131.514618,8.41573642 131.978991,7.87774584 132.511768,7.48321349 C133.044545,7.08868114 133.64211,6.89141793 134.304482,6.89141793 C134.851658,6.89141793 135.305232,7.01694907 135.665216,7.26801511 L135.319633,9.25860018 C135.298034,9.38771985 135.251236,9.47917825 135.17924,9.53297812 C135.107243,9.58677798 135.010048,9.61367751 134.887654,9.61367751 C134.779658,9.61367751 134.632067,9.58857129 134.444875,9.53835808 C134.257683,9.48814487 134.009297,9.46303864 133.699711,9.46303864 C133.145335,9.46303864 132.670162,9.61546931 132.274179,9.92033521 C131.878197,10.2252011 131.543416,10.6717333 131.269828,11.2599452 L131.269828,18.1355336 L128.602356,18.1355336 Z" id="Truefactor" fill="#0C4C80"></path>
                    </g>
                </g>
            </g>
        </g>
    </g>
</svg>