<?xml version="1.0" encoding="UTF-8" standalone="no"?>
<svg width="198px" height="32px" viewBox="0 0 198 32" version="1.1" xmlns="http://www.w3.org/2000/svg" xmlns:xlink="http://www.w3.org/1999/xlink" xmlns:sketch="http://www.bohemiancoding.com/sketch/ns">
    <!-- Generator: Sketch 3.3.3 (12081) - http://www.bohemiancoding.com/sketch -->
    <title>Truefactor / Logo</title>
    <desc>Created with Sketch.</desc>
    <defs></defs>
    <g id="Page-1" stroke="none" stroke-width="1" fill="none" fill-rule="evenodd" sketch:type="MSPage">
        <g id="-apple-touch-startup-image" sketch:type="MSArtboardGroup" transform="translate(-61.000000, -289.000000)">
            <g id="Truefactor-/-Logo-+-Truefactor-/-Icon" sketch:type="MSLayerGroup" transform="translate(60.000000, 190.000000)">
                <g id="Truefactor-/-Logo" transform="translate(0.000000, 90.000000)" sketch:type="MSShapeGroup">
                    <rect id="Rectangle-24" fill-opacity="0" fill="#D8D8D8" x="0" y="0" width="200" height="50"></rect>
                    <path d="M25.6444131,9.53799597 L25.6444131,14.2938803 L16.2488656,14.2938803 L16.2488656,40.6556826 L10.4387454,40.6556826 L10.4387454,14.2938803 L1,14.2938803 L1,9.53799597 L25.6444131,9.53799597 Z M24.8791095,40.6556826 L24.8791095,18.5763282 L28.0109587,18.5763282 C28.5581351,18.5763282 28.9397129,18.6767531 29.1557035,18.8776059 C29.3716942,19.0784587 29.5156859,19.4227727 29.5876827,19.9105582 L29.9116671,22.5790182 C30.703633,21.2160882 31.6323789,20.1401071 32.697933,19.3510424 C33.763487,18.5619777 34.9586175,18.1674512 36.2833603,18.1674512 C37.3777131,18.1674512 38.2848603,18.4185135 39.0048292,18.9206456 L38.3136625,22.9018157 C38.2704644,23.1600551 38.1768698,23.3429719 38.032876,23.4505716 C37.8888822,23.5581714 37.6944936,23.6119704 37.4497041,23.6119704 C37.2337134,23.6119704 36.9385306,23.561758 36.5641468,23.4613315 C36.1897629,23.3609051 35.6929918,23.3106927 35.0738185,23.3106927 C33.9650664,23.3106927 33.0147217,23.615554 32.2227558,24.2252858 C31.43079,24.8350176 30.761229,25.728082 30.2140526,26.9045057 L30.2140526,40.6556826 L24.8791095,40.6556826 Z M46.7063178,18.5763282 L46.7063178,32.6072629 C46.7063178,33.9558462 47.0194996,34.999548 47.6458726,35.7383995 C48.2722455,36.4772509 49.2117909,36.8466711 50.4645368,36.8466711 C51.3860971,36.8466711 52.2500468,36.6422347 53.056412,36.2333557 C53.8627772,35.8244768 54.6259328,35.26138 55.3459018,34.5440484 L55.3459018,18.5763282 L60.6808448,18.5763282 L60.6808448,40.6556826 L57.4194019,40.6556826 C56.7282317,40.6556826 56.2746581,40.3328882 56.0586674,39.6872898 L55.6914851,37.9226631 C55.230705,38.3817553 54.7555326,38.8013879 54.2659538,39.1815736 C53.7763749,39.5617594 53.2544052,39.8845537 52.7000292,40.1499664 C52.1456531,40.415379 51.5480879,40.6234021 50.9073155,40.7740417 C50.2665432,40.9246813 49.5789832,41 48.8446148,41 C47.635067,41 46.5659292,40.7955636 45.6371693,40.3866846 C44.7084094,39.9778056 43.9272548,39.4003624 43.2936822,38.6543376 C42.6601095,37.9083128 42.1813374,37.0224216 41.8573513,35.9966375 C41.5333653,34.9708534 41.3713748,33.8410732 41.3713748,32.6072629 L41.3713748,18.5763282 L46.7063178,18.5763282 Z M74.8404224,18.2320108 C76.2371621,18.2320108 77.5222874,18.4543802 78.6958367,18.8991258 C79.8693861,19.3438713 80.8809273,19.9930466 81.7304906,20.8466711 C82.5800539,21.7002957 83.2424154,22.747584 83.7175949,23.9885676 C84.1927744,25.2295511 84.4303606,26.6462597 84.4303606,28.2387357 C84.4303606,28.6404414 84.4123616,28.9739955 84.3763632,29.2394082 C84.3403647,29.5048209 84.2755685,29.7128439 84.1819725,29.8634835 C84.0883766,30.0141231 83.9623839,30.1217213 83.8039907,30.1862811 C83.6455976,30.2508409 83.4440093,30.2831204 83.1992199,30.2831204 L69.5054793,30.2831204 C69.6638725,32.549888 70.2758369,34.2140723 71.3413909,35.2757229 C72.4069449,36.3373736 73.8180629,36.868191 75.574787,36.868191 C76.4387498,36.868191 77.1839064,36.7677661 77.8102794,36.5669132 C78.4366524,36.3660604 78.9838205,36.143691 79.4518003,35.8997983 C79.9197801,35.6559055 80.3301563,35.4335361 80.682941,35.2326833 C81.0357258,35.0318304 81.3777059,34.9314055 81.7088916,34.9314055 C81.9248823,34.9314055 82.1120714,34.9744448 82.2704646,35.0605245 C82.4288578,35.1466043 82.5656498,35.2685489 82.6808448,35.4263618 L84.2359699,37.3631473 C83.6455954,38.0517856 82.9832339,38.6292288 82.2488656,39.0954943 C81.5144973,39.5617598 80.7477419,39.9347666 79.9485764,40.2145259 C79.1494109,40.4942852 78.3358582,40.6915484 77.5078939,40.8063215 C76.6799297,40.9210945 75.8771764,40.9784802 75.0996099,40.9784802 C73.5588764,40.9784802 72.1261598,40.7238313 70.8014169,40.2145259 C69.4766741,39.7052205 68.3247411,38.9520337 67.3455834,37.9549428 C66.3664256,36.957852 65.5960704,35.7240603 65.0344947,34.2535306 C64.4729189,32.7830009 64.1921352,31.0793641 64.1921352,29.1425689 C64.1921352,27.6361727 64.436921,26.2194642 64.9264999,24.8924008 C65.4160787,23.5653375 66.1180379,22.410451 67.0323984,21.4277068 C67.946759,20.4449626 69.0626941,19.6666695 70.3802372,19.0928043 C71.6977803,18.5189391 73.1844939,18.2320108 74.8404224,18.2320108 L74.8404224,18.2320108 Z M74.9484172,22.0410222 C73.3932843,22.0410222 72.1765551,22.4785879 71.298193,23.3537323 C70.4198309,24.2288768 69.8582636,25.4698418 69.6134741,27.0766644 L79.6353915,27.0766644 C79.6353915,26.3880261 79.5417969,25.7388508 79.354605,25.129119 C79.1674131,24.5193872 78.8794298,23.9849832 78.4906466,23.5258911 C78.1018634,23.0667989 77.6122919,22.7045519 77.0219174,22.4391392 C76.4315428,22.1737265 75.740383,22.0410222 74.9484172,22.0410222 L74.9484172,22.0410222 Z M89.021599,40.6556826 L89.021599,22.5790182 L87.0992915,22.2777404 C86.6817096,22.2060073 86.346929,22.0625431 86.0949399,21.8473436 C85.8429508,21.6321442 85.7169581,21.3308695 85.7169581,20.9435104 L85.7169581,18.7700067 L89.021599,18.7700067 L89.021599,17.134499 C89.021599,15.8719955 89.2123879,14.7386286 89.5939714,13.7343645 C89.9755549,12.7301003 90.5227231,11.8764886 91.2354923,11.1735037 C91.9482616,10.4705188 92.8158111,9.9325282 93.838167,9.5595158 C94.8605229,9.1865034 96.0124559,9 97.2940006,9 C98.3163564,9 99.2667012,9.13629095 100.145063,9.40887693 L100.037068,12.0773369 C100.00827,12.4933892 99.813881,12.7516247 99.4538965,12.8520511 C99.0939121,12.9524775 98.6763364,13.00269 98.2011569,13.00269 C97.5675842,13.00269 97.0024171,13.0708355 96.5056385,13.2071284 C96.00886,13.3434214 95.5876845,13.5801373 95.2420994,13.9172831 C94.8965143,14.2544289 94.6337296,14.6991678 94.4537374,15.2515131 C94.2737451,15.8038584 94.1837504,16.4888997 94.1837504,17.3066577 L94.1837504,18.7700067 L99.9506726,18.7700067 L99.9506726,22.5574983 L94.356542,22.5574983 L94.356542,40.6556826 L89.021599,40.6556826 Z M119.877172,40.6556826 L117.479688,40.6556826 C116.97571,40.6556826 116.579733,40.5803639 116.291745,40.4297243 C116.003758,40.2790847 115.78777,39.9742233 115.643776,39.5151311 L115.168599,37.9441829 C114.607023,38.446315 114.056256,38.8874673 113.516279,39.267653 C112.976302,39.6478387 112.418335,39.9670465 111.842359,40.2252858 C111.266384,40.4835252 110.65442,40.6772018 110.006448,40.8063215 C109.358476,40.9354411 108.638518,41 107.846552,41 C106.910592,41 106.046643,40.8744689 105.254677,40.6234028 C104.462711,40.3723368 103.78235,39.9957434 103.213575,39.4936113 C102.6448,38.9914792 102.202025,38.3674101 101.885239,37.6213853 C101.568453,36.8753605 101.410062,36.0074024 101.410062,35.0174849 C101.410062,34.1853803 101.629649,33.364048 102.06883,32.5534633 C102.508011,31.7428787 103.238769,31.0112115 104.261125,30.3584398 C105.28348,29.7056681 106.644201,29.1640909 108.343328,28.733692 C110.042455,28.3032931 112.151932,28.059404 114.671823,28.0020175 L114.671823,26.7108272 C114.671823,25.2331242 114.358641,24.13921 113.732268,23.4290518 C113.105895,22.7188936 112.195148,22.3638198 111,22.3638198 C110.136037,22.3638198 109.416079,22.4642447 108.840104,22.6650975 C108.264129,22.8659503 107.763758,23.0919064 107.338976,23.3429724 C106.914195,23.5940385 106.521817,23.8199945 106.161833,24.0208473 C105.801849,24.2217002 105.405872,24.3221251 104.97389,24.3221251 C104.613906,24.3221251 104.304324,24.2288734 104.045135,24.0423672 C103.785946,23.855861 103.577158,23.6263183 103.418765,23.3537323 L102.446812,21.6536651 C104.995502,19.3295109 108.069723,18.1674512 111.669568,18.1674512 C112.965512,18.1674512 114.121045,18.3790609 115.136201,18.8022865 C116.151357,19.2255121 117.011707,19.8137151 117.717277,20.5669132 C118.422846,21.3201114 118.959215,22.2203489 119.326399,23.267653 C119.693583,24.314957 119.877172,25.4626703 119.877172,26.7108272 L119.877172,40.6556826 Z M109.509672,37.3416274 C110.056848,37.3416274 110.560819,37.291415 111.021599,37.1909886 C111.482379,37.0905622 111.917954,36.9399248 112.328336,36.739072 C112.738718,36.5382191 113.134695,36.2907435 113.516279,35.9966375 C113.897862,35.7025316 114.28304,35.354631 114.671823,34.9529254 L114.671823,31.2299933 C113.11669,31.3017264 111.817166,31.4344308 110.773211,31.6281103 C109.729256,31.8217898 108.890505,32.0692655 108.256932,32.3705447 C107.623359,32.671824 107.173386,33.0233111 106.906997,33.4250168 C106.640609,33.8267225 106.507416,34.2642882 106.507416,34.737727 C106.507416,35.670258 106.7846,36.3373663 107.338976,36.739072 C107.893352,37.1407776 108.61691,37.3416274 109.509672,37.3416274 L109.509672,37.3416274 Z M139.998063,23.2461332 C139.83967,23.446986 139.684879,23.6047966 139.533685,23.7195696 C139.382492,23.8343426 139.162905,23.8917283 138.874917,23.8917283 C138.601329,23.8917283 138.334944,23.8092364 138.075756,23.6442502 C137.816567,23.4792639 137.506985,23.2927605 137.147,23.0847344 C136.787016,22.8767082 136.358641,22.6902048 135.861862,22.5252186 C135.365084,22.3602323 134.749519,22.2777404 134.015151,22.2777404 C133.079192,22.2777404 132.258439,22.4463108 131.55287,22.7834566 C130.8473,23.1206024 130.260534,23.604794 129.792554,24.2360457 C129.324575,24.8672975 128.975395,25.6312441 128.745005,26.5279085 C128.514615,27.424573 128.399422,28.4395819 128.399422,29.5729657 C128.399422,30.7493894 128.525414,31.7966778 128.777403,32.7148621 C129.029392,33.6330465 129.392971,34.4041663 129.868151,35.0282448 C130.34333,35.6523232 130.919297,36.1257549 131.596068,36.4485541 C132.272838,36.7713533 133.035994,36.9327505 133.885557,36.9327505 C134.735121,36.9327505 135.422681,36.828739 135.948258,36.6207128 C136.473835,36.4126867 136.91661,36.183144 137.276594,35.932078 C137.636579,35.681012 137.94976,35.4514693 138.216149,35.2434432 C138.482537,35.035417 138.78132,34.9314055 139.112506,34.9314055 C139.544487,34.9314055 139.868468,35.0963893 140.084459,35.4263618 L141.617985,37.3631473 C141.02761,38.0517856 140.386848,38.6292288 139.695678,39.0954943 C139.004507,39.5617598 138.288149,39.9347666 137.546581,40.2145259 C136.805013,40.4942852 136.038258,40.6915484 135.246292,40.8063215 C134.454326,40.9210945 133.669572,40.9784802 132.892005,40.9784802 C131.524064,40.9784802 130.235339,40.7238313 129.025791,40.2145259 C127.816244,39.7052205 126.761505,38.9627935 125.861544,37.9872226 C124.961583,37.0116517 124.248824,35.8173126 123.723247,34.4041695 C123.197669,32.9910263 122.934885,31.3806412 122.934885,29.5729657 C122.934885,27.9517964 123.168871,26.4490094 123.636851,25.0645595 C124.104831,23.6801096 124.792391,22.4821839 125.699552,21.4707465 C126.606712,20.459309 127.729847,19.6666695 129.068989,19.0928043 C130.408132,18.5189391 131.948842,18.2320108 133.691167,18.2320108 C135.347095,18.2320108 136.797811,18.4974194 138.043357,19.0282448 C139.288903,19.5590701 140.408438,20.3194302 141.401995,21.3093477 L139.998063,23.2461332 Z M151.608963,41 C149.693846,41 148.217932,40.4584228 147.181177,39.3752522 C146.144421,38.2920816 145.626051,36.7964677 145.626051,34.8883658 L145.626051,22.5574983 L143.37976,22.5574983 C143.091772,22.5574983 142.843386,22.4642466 142.634596,22.2777404 C142.425805,22.0912342 142.321411,21.8114791 142.321411,21.4384667 L142.321411,19.3295225 L145.885239,18.7484869 L147.008385,12.7229321 C147.065982,12.4359995 147.199175,12.21363 147.407966,12.0558171 C147.616757,11.8980041 147.879541,11.8190989 148.196328,11.8190989 L150.960995,11.8190989 L150.960995,18.7700067 L156.792714,18.7700067 L156.792714,22.5574983 L150.960995,22.5574983 L150.960995,34.5225286 C150.960995,35.2111669 151.133784,35.7491574 151.47937,36.1365165 C151.824955,36.5238755 152.285728,36.7175521 152.861703,36.7175521 C153.192889,36.7175521 153.470073,36.6780995 153.693263,36.599193 C153.916453,36.5202865 154.110842,36.4377946 154.276435,36.3517149 C154.442028,36.2656351 154.589619,36.1831432 154.719214,36.1042367 C154.848808,36.0253302 154.9784,35.9858776 155.107995,35.9858776 C155.266388,35.9858776 155.39598,36.0253302 155.496776,36.1042367 C155.597572,36.1831432 155.705565,36.3015011 155.82076,36.4593141 L157.419083,39.0416947 C156.641517,39.6872931 155.748769,40.1750712 154.740812,40.5050437 C153.732856,40.8350162 152.688917,41 151.608963,41 L151.608963,41 Z M169.807546,18.2320108 C171.463475,18.2320108 172.964588,18.4974194 174.31093,19.0282448 C175.657271,19.5590701 176.805605,20.3122569 177.755964,21.2878278 C178.706323,22.2633987 179.44068,23.4541512 179.959057,24.860121 C180.477435,26.2660909 180.73662,27.8370234 180.73662,29.5729657 C180.73662,31.3232547 180.477435,32.9013604 179.959057,34.3073302 C179.44068,35.7133 178.706323,36.9112257 177.755964,37.9011432 C176.805605,38.8910608 175.657271,39.6514208 174.31093,40.1822461 C172.964588,40.7130715 171.463475,40.9784802 169.807546,40.9784802 C168.151618,40.9784802 166.646905,40.7130715 165.293364,40.1822461 C163.939822,39.6514208 162.784289,38.8910608 161.826731,37.9011432 C160.869172,36.9112257 160.127615,35.7133 159.602038,34.3073302 C159.076461,32.9013604 158.813676,31.3232547 158.813676,29.5729657 C158.813676,27.8370234 159.076461,26.2660909 159.602038,24.860121 C160.127615,23.4541512 160.869172,22.2633987 161.826731,21.2878278 C162.784289,20.3122569 163.939822,19.5590701 165.293364,19.0282448 C166.646905,18.4974194 168.151618,18.2320108 169.807546,18.2320108 L169.807546,18.2320108 Z M169.807546,36.8897108 C171.650667,36.8897108 173.014987,36.272815 173.900549,35.0390047 C174.786111,33.8051945 175.228885,31.9975461 175.228885,29.6160054 C175.228885,27.2344647 174.786111,25.4196431 173.900549,24.1714862 C173.014987,22.9233293 171.650667,22.2992603 169.807546,22.2992603 C167.935627,22.2992603 166.553308,22.9269159 165.660546,24.1822461 C164.767785,25.4375763 164.321411,27.2488113 164.321411,29.6160054 C164.321411,31.9831995 164.767785,33.7872612 165.660546,35.0282448 C166.553308,36.2692284 167.935627,36.8897108 169.807546,36.8897108 L169.807546,36.8897108 Z M184.204713,40.6556826 L184.204713,18.5763282 L187.336562,18.5763282 C187.883738,18.5763282 188.265316,18.6767531 188.481307,18.8776059 C188.697297,19.0784587 188.841289,19.4227727 188.913286,19.9105582 L189.23727,22.5790182 C190.029236,21.2160882 190.957982,20.1401071 192.023536,19.3510424 C193.08909,18.5619777 194.28422,18.1674512 195.608963,18.1674512 C196.703316,18.1674512 197.610463,18.4185135 198.330432,18.9206456 L197.639266,22.9018157 C197.596067,23.1600551 197.502473,23.3429719 197.358479,23.4505716 C197.214485,23.5581714 197.020097,23.6119704 196.775307,23.6119704 C196.559316,23.6119704 196.264134,23.561758 195.88975,23.4613315 C195.515366,23.3609051 195.018595,23.3106927 194.399422,23.3106927 C193.290669,23.3106927 192.340325,23.615554 191.548359,24.2252858 C190.756393,24.8350176 190.086832,25.728082 189.539656,26.9045057 L189.539656,40.6556826 L184.204713,40.6556826 Z" id="Truefactor" fill="#0C4C80"></path>
                </g>
            </g>
        </g>
    </g>
</svg>